<?xml version="1.0" encoding="utf-8"?>
<!-- Generator: Adobe Illustrator 27.5.0, SVG Export Plug-In . SVG Version: 6.00 Build 0)  -->
<svg version="1.1" xmlns="http://www.w3.org/2000/svg" xmlns:xlink="http://www.w3.org/1999/xlink" x="0px" y="0px"
	 viewBox="0 0 500 500" style="enable-background:new 0 0 500 500;" xml:space="preserve">
<g id="Shadow_1_">
	<g>
		<g>
			<path style="fill:#C6FF00;" d="M400.233,337.975c-19.755-1.463,0.732-4.39,19.023-6.585c18.292-2.195-65.119-2.927-65.851-11.707
				c-0.732-8.78,64.387-5.853,65.851-15.365c1.463-9.512-49.754-20.487-54.875-21.218c-5.122-0.732,2.195-2.927,17.56-10.243
				c15.365-7.317-67.314-12.438-67.314-12.438S262,257.573,250,263.103V416h-3.795c-1.003,6.773-1.675,8.754,3.304,9.775
				c9.453,1.939,56.339-2.195,88.532-2.927c32.194-0.732-38.779-5.853-52.68-8.78c-13.902-2.927,34.389-2.195,49.022-5.853
				c14.634-3.658-5.853-3.658-12.438-10.975c-6.585-7.317,54.875-12.438,62.924-14.633c8.048-2.195-16.097-5.853-22.682-13.17
				c-6.585-7.317,58.534-10.243,76.094-16.829C455.84,346.023,419.988,339.438,400.233,337.975z"/>
			<g>
				<path style="fill:#C6FF00;" d="M159.56,252.086c-8.106-1.351-6.304,1.351-13.059-2.251c0,0-7.205-4.053-13.96-3.152
					c-6.755,0.9-10.357,3.152-17.112,4.053c-6.755,0.901-10.807-0.45-20.264,0.45c-9.457,0.901-14.41,1.801-19.814,2.702
					c-5.404,0.9-13.059,2.251-13.059,2.251h108.975C171.268,256.139,167.666,253.437,159.56,252.086z"/>
				<path style="fill:#C6FF00;" d="M398.749,236.773c-8.105-1.351-6.304,1.351-13.059-2.252c0,0-7.205-4.053-13.96-3.152
					c-6.755,0.9-10.357,3.152-17.112,4.053c-6.755,0.901-10.807-0.45-20.264,0.45c-9.457,0.901-14.41,1.801-19.814,2.702
					c-5.404,0.901-13.059,2.251-13.059,2.251h108.975C410.457,240.825,406.854,238.124,398.749,236.773z"/>
				<path style="fill:#C6FF00;" d="M166.852,376.056c-8.105-1.351-6.304,1.351-13.059-2.252c0,0-7.205-4.053-13.96-3.152
					c-6.755,0.901-10.357,3.152-17.112,4.053c-6.755,0.901-10.807-0.45-20.264,0.45c-9.457,0.901-14.41,1.801-19.814,2.702
					c-5.404,0.901-13.059,2.252-13.059,2.252h108.975C178.561,380.109,174.958,377.407,166.852,376.056z"/>
				<path style="fill:#C6FF00;" d="M146.876,329.076c-5.063-1.186-9.703-2.372-18.562-3.559c-8.859-1.186-12.656,0.593-18.984-0.593
					c-6.328-1.186-9.703-4.152-16.031-5.338c-6.328-1.186-13.078,4.152-13.078,4.152c-6.328,4.745-4.641,1.186-12.234,2.965
					c-7.594,1.779-10.969,5.338-10.969,5.338H159.11C159.11,332.041,151.938,330.262,146.876,329.076z"/>
				<path style="fill:#C6FF00;" d="M207.945,413.953c-3.329-0.78-6.38-1.56-12.206-2.34c-5.826-0.78-8.322,0.39-12.484-0.39
					c-4.161-0.78-6.381-2.73-10.542-3.51c-4.161-0.78-8.6,2.73-8.6,2.73c-4.161,3.12-3.051,0.78-8.045,1.95
					c-4.993,1.17-7.213,3.51-7.213,3.51h67.135C215.99,415.903,211.274,414.733,207.945,413.953z"/>
				<path style="fill:#C6FF00;" d="M252.539,424.227c-5.826-0.78-8.323,0.39-12.484-0.39c-4.161-0.78-6.38-2.73-10.542-3.51
					c-4.161-0.78-8.6,2.73-8.6,2.73c-4.161,3.12-3.051,0.78-8.045,1.95c-4.993,1.17-7.213,3.51-7.213,3.51h67.135
					c0,0-4.716-1.17-8.045-1.95C261.416,425.787,258.365,425.006,252.539,424.227z"/>
				<path style="fill:#C6FF00;" d="M381.613,401.62c-5.826-0.78-8.322,0.39-12.484-0.39c-4.161-0.78-6.381-2.73-10.542-3.51
					c-4.161-0.78-8.6,2.73-8.6,2.73c-4.161,3.12-3.052,0.78-8.045,1.95c-4.994,1.17-7.213,3.51-7.213,3.51h67.135
					c0,0-4.716-1.17-8.045-1.95C390.491,403.18,387.439,402.4,381.613,401.62z"/>
				<path style="fill:#C6FF00;" d="M250,256.139h103.685c0,0-3.603-2.702-11.708-4.053c-8.106-1.351-6.304,1.351-13.059-2.251
					c0,0-7.205-4.053-13.96-3.152c-6.755,0.901-10.357,3.152-17.112,4.053c-6.755,0.901-10.807-0.45-20.264,0.45
					c-9.457,0.901-14.41,1.801-19.814,2.702c-2.436,0.406-5.325,0.903-7.768,1.327V256.139z"/>
				<path style="fill:#C6FF00;" d="M406.019,252.84c-4.479,0.427-6.825,0.853-9.385,1.28c-2.56,0.427-6.186,1.066-6.186,1.066
					h51.618c0,0-1.706-1.28-5.546-1.92c-3.839-0.64-2.986,0.64-6.186-1.066c0,0-3.413-1.92-6.612-1.493
					c-3.199,0.427-4.906,1.493-8.105,1.92C412.418,253.053,410.498,252.413,406.019,252.84z"/>
				<path style="fill:#C6FF00;" d="M141.609,318.098c0,0-3.413-1.92-6.612-1.493c-3.199,0.427-4.906,1.493-8.105,1.92
					c-3.199,0.427-5.119-0.213-9.598,0.213c-4.479,0.427-6.825,0.853-9.385,1.28c-2.56,0.427-6.186,1.066-6.186,1.066h51.617
					c0,0-1.706-1.28-5.546-1.92C143.955,318.524,144.808,319.804,141.609,318.098z"/>
				<path style="fill:#C6FF00;" d="M148.473,272.956c-3.839-0.64-2.986,0.64-6.186-1.066c0,0-3.413-1.92-6.612-1.493
					c-3.199,0.426-4.906,1.493-8.105,1.92c-3.199,0.427-5.119-0.213-9.598,0.213c-4.479,0.427-6.825,0.853-9.385,1.28
					c-2.56,0.427-6.186,1.066-6.186,1.066h51.618C154.018,274.875,152.312,273.596,148.473,272.956z"/>
			</g>
		</g>
		<g style="opacity:0.6;">
			<path style="fill:#FFFFFF;" d="M400.233,337.975c-19.755-1.463,0.732-4.39,19.023-6.585c18.292-2.195-65.119-2.927-65.851-11.707
				c-0.732-8.78,64.387-5.853,65.851-15.365c1.463-9.512-49.754-20.487-54.875-21.218c-5.122-0.732,2.195-2.927,17.56-10.243
				c15.365-7.317-67.314-12.438-67.314-12.438S262,257.573,250,263.103V416h-3.795c-1.003,6.773-1.675,8.754,3.304,9.775
				c9.453,1.939,56.339-2.195,88.532-2.927c32.194-0.732-38.779-5.853-52.68-8.78c-13.902-2.927,34.389-2.195,49.022-5.853
				c14.634-3.658-5.853-3.658-12.438-10.975c-6.585-7.317,54.875-12.438,62.924-14.633c8.048-2.195-16.097-5.853-22.682-13.17
				c-6.585-7.317,58.534-10.243,76.094-16.829C455.84,346.023,419.988,339.438,400.233,337.975z"/>
			<g>
				<path style="fill:#FFFFFF;" d="M159.56,252.086c-8.106-1.351-6.304,1.351-13.059-2.251c0,0-7.205-4.053-13.96-3.152
					c-6.755,0.9-10.357,3.152-17.112,4.053c-6.755,0.901-10.807-0.45-20.264,0.45c-9.457,0.901-14.41,1.801-19.814,2.702
					c-5.404,0.9-13.059,2.251-13.059,2.251h108.975C171.268,256.139,167.666,253.437,159.56,252.086z"/>
				<path style="fill:#FFFFFF;" d="M398.749,236.773c-8.105-1.351-6.304,1.351-13.059-2.252c0,0-7.205-4.053-13.96-3.152
					c-6.755,0.9-10.357,3.152-17.112,4.053c-6.755,0.901-10.807-0.45-20.264,0.45c-9.457,0.901-14.41,1.801-19.814,2.702
					c-5.404,0.901-13.059,2.251-13.059,2.251h108.975C410.457,240.825,406.854,238.124,398.749,236.773z"/>
				<path style="fill:#FFFFFF;" d="M166.852,376.056c-8.105-1.351-6.304,1.351-13.059-2.252c0,0-7.205-4.053-13.96-3.152
					c-6.755,0.901-10.357,3.152-17.112,4.053c-6.755,0.901-10.807-0.45-20.264,0.45c-9.457,0.901-14.41,1.801-19.814,2.702
					c-5.404,0.901-13.059,2.252-13.059,2.252h108.975C178.561,380.109,174.958,377.407,166.852,376.056z"/>
				<path style="fill:#FFFFFF;" d="M146.876,329.076c-5.063-1.186-9.703-2.372-18.562-3.559c-8.859-1.186-12.656,0.593-18.984-0.593
					c-6.328-1.186-9.703-4.152-16.031-5.338c-6.328-1.186-13.078,4.152-13.078,4.152c-6.328,4.745-4.641,1.186-12.234,2.965
					c-7.594,1.779-10.969,5.338-10.969,5.338H159.11C159.11,332.041,151.938,330.262,146.876,329.076z"/>
				<path style="fill:#FFFFFF;" d="M207.945,413.953c-3.329-0.78-6.38-1.56-12.206-2.34c-5.826-0.78-8.322,0.39-12.484-0.39
					c-4.161-0.78-6.381-2.73-10.542-3.51c-4.161-0.78-8.6,2.73-8.6,2.73c-4.161,3.12-3.051,0.78-8.045,1.95
					c-4.993,1.17-7.213,3.51-7.213,3.51h67.135C215.99,415.903,211.274,414.733,207.945,413.953z"/>
				<path style="fill:#FFFFFF;" d="M252.539,424.227c-5.826-0.78-8.323,0.39-12.484-0.39c-4.161-0.78-6.38-2.73-10.542-3.51
					c-4.161-0.78-8.6,2.73-8.6,2.73c-4.161,3.12-3.051,0.78-8.045,1.95c-4.993,1.17-7.213,3.51-7.213,3.51h67.135
					c0,0-4.716-1.17-8.045-1.95C261.416,425.787,258.365,425.006,252.539,424.227z"/>
				<path style="fill:#FFFFFF;" d="M381.613,401.62c-5.826-0.78-8.322,0.39-12.484-0.39c-4.161-0.78-6.381-2.73-10.542-3.51
					c-4.161-0.78-8.6,2.73-8.6,2.73c-4.161,3.12-3.052,0.78-8.045,1.95c-4.994,1.17-7.213,3.51-7.213,3.51h67.135
					c0,0-4.716-1.17-8.045-1.95C390.491,403.18,387.439,402.4,381.613,401.62z"/>
				<path style="fill:#FFFFFF;" d="M250,256.139h103.685c0,0-3.603-2.702-11.708-4.053c-8.106-1.351-6.304,1.351-13.059-2.251
					c0,0-7.205-4.053-13.96-3.152c-6.755,0.901-10.357,3.152-17.112,4.053c-6.755,0.901-10.807-0.45-20.264,0.45
					c-9.457,0.901-14.41,1.801-19.814,2.702c-2.436,0.406-5.325,0.903-7.768,1.327V256.139z"/>
				<path style="fill:#FFFFFF;" d="M406.019,252.84c-4.479,0.427-6.825,0.853-9.385,1.28c-2.56,0.427-6.186,1.066-6.186,1.066
					h51.618c0,0-1.706-1.28-5.546-1.92c-3.839-0.64-2.986,0.64-6.186-1.066c0,0-3.413-1.92-6.612-1.493
					c-3.199,0.427-4.906,1.493-8.105,1.92C412.418,253.053,410.498,252.413,406.019,252.84z"/>
				<path style="fill:#FFFFFF;" d="M141.609,318.098c0,0-3.413-1.92-6.612-1.493c-3.199,0.427-4.906,1.493-8.105,1.92
					c-3.199,0.427-5.119-0.213-9.598,0.213c-4.479,0.427-6.825,0.853-9.385,1.28c-2.56,0.427-6.186,1.066-6.186,1.066h51.617
					c0,0-1.706-1.28-5.546-1.92C143.955,318.524,144.808,319.804,141.609,318.098z"/>
				<path style="fill:#FFFFFF;" d="M148.473,272.956c-3.839-0.64-2.986,0.64-6.186-1.066c0,0-3.413-1.92-6.612-1.493
					c-3.199,0.426-4.906,1.493-8.105,1.92c-3.199,0.427-5.119-0.213-9.598,0.213c-4.479,0.427-6.825,0.853-9.385,1.28
					c-2.56,0.427-6.186,1.066-6.186,1.066h51.618C154.018,274.875,152.312,273.596,148.473,272.956z"/>
			</g>
		</g>
	</g>
</g>
<g id="Island">
	<g>
		<path style="fill:#C6FF00;" d="M400.568,220.904c-0.091-0.574-0.298-1.091-0.599-1.492l-1.107-1.477c0,0,0.9,0.355,2.155,0.307
			c1.255-0.048,3.349,0.786,3.349,0.786s-1.083-1.825-2.47-1.962c-1.388-0.137-3.213,0.016-3.213,0.016s0.299-0.349,1.575-0.969
			c1.276-0.62,1.687-0.38,1.687-0.38l1.255-0.048c0,0-0.362-1.508-1.757-1.454c-1.395,0.054-3.012,2.4-3.012,2.4
			s0.586-0.784-0.306-3.033c-0.892-2.249-2.677-2.941-2.677-2.941s0.739,2.635,1.387,3.942c0.648,1.307,0.899,2.059,0.899,2.059
			s-0.464-0.303-1.062-0.582c-2.246-5.273-6.177-12.422-11.79-15.299l-1.052-1.403c0,0,0.9,0.355,2.155,0.307
			c1.255-0.048,3.349,0.786,3.349,0.786s-1.083-1.825-2.471-1.962c-1.388-0.137-3.213,0.015-3.213,0.015s0.299-0.349,1.575-0.969
			c1.276-0.62,1.687-0.38,1.687-0.38l1.255-0.048c0,0-0.362-1.508-1.757-1.454c-1.394,0.054-3.012,2.4-3.012,2.4
			s0.586-0.784-0.306-3.033c-0.892-2.249-2.677-2.941-2.677-2.941s0.739,2.635,1.387,3.943c0.648,1.307,0.899,2.058,0.899,2.058
			s-1.631-1.079-2.747-1.036c-1.116,0.043-2.831,1.251-2.831,1.251s1.227,0.714,2.754,0.845c1.527,0.131,3.045,0.158,3.045,0.158
			s-0.279,0.151-0.728,0.464c-0.299-0.069-0.6-0.134-0.907-0.178c-5.888-0.841-10.512,0.213-14.611,0.948
			c-1.862-1.155-3.217-1.659-3.217-1.659s2.679-0.11,5.38-0.356c2.701-0.246,4.911-1.228,4.911-1.228s-2.947-1.473-4.911-1.473
			c-1.965,0-4.911,1.473-4.911,1.473s0.491-0.982,1.719-2.701c1.228-1.719,2.701-5.157,2.701-5.157s-3.192,0.982-4.911,3.929
			c-1.719,2.947-0.737,3.929-0.737,3.929s-2.701-2.947-5.157-2.947s-3.192,1.964-3.192,1.964h2.21c0,0,0.74-0.33,2.95,0.407
			c2.21,0.737,2.715,1.172,2.715,1.172s-3.209-0.105-5.664,0.14c-0.87,0.087-1.681,0.45-2.373,0.877
			c-7.084-5.012-13.329-19.715-32.533-24.516c-20.157-5.039-50.982,24.258-69.709,28.556c-17.75,4.073-56.923-6.352-87.423,1.128
			c-0.751-0.285-1.704-0.577-2.465-0.577c-1.485,0-3.711,1.113-3.711,1.113s0.371-0.742,1.299-2.041
			c0.928-1.299,2.041-3.897,2.041-3.897s-2.412,0.742-3.711,2.969c-1.299,2.227-0.557,2.969-0.557,2.969s-2.041-2.227-3.897-2.227
			c-1.856,0-2.412,1.485-2.412,1.485h1.67c0,0,0.559-0.249,2.229,0.307c1.67,0.557,2.051,0.886,2.051,0.886s-2.425-0.08-4.28,0.106
			c-1.856,0.186-3.388,2.006-3.388,2.006s2.832-0.893,4.502-0.893c1.67,0,2.887-0.38,2.887-0.38l-0.762,0.73
			c-4.17,1.386-7.797,2.653-10.972,3.807c0.433,0.044,2.021,0.306,3.385,1.863c1.595,1.82,1.305,2.755,1.305,2.755
			s0.738-2.753,2.033-3.271c1.296-0.518,2.143,0.781,2.143,0.781l-1.166,0.466c0,0-0.467-0.088-1.461,0.924
			c-0.994,1.012-1.159,1.441-1.159,1.441s1.668-0.755,3.021-1.092c1.353-0.336,2.985,1.02,2.985,1.02s-2.253-0.084-3.419,0.382
			c-1.166,0.466-2.133,0.434-2.133,0.434l1.538,1.02c0.418,0.277,0.787,0.695,1.065,1.205l1.566,2.875c0,0-1.624-0.988-2.487-1.872
			c-0.862-0.884-1.936-2.406-1.936-2.406s-0.553,2.378-1.303,3.702c-0.75,1.324-1.744,2.336-1.744,2.336s0.033-2.675,0.855-4.233
			c0.822-1.558,1.571-2.38,1.571-2.38s-1.439,0.484-2.922,0.872c-1.482,0.388-2.878,0.127-2.878,0.127s1.211-1.713,2.248-2.128
			c1.037-0.415,2.935,0.055,2.935,0.055s-0.488-0.624-1.537-1.638c-0.99-0.957-2.437-2.98-2.597-3.206
			c-6.167,2.242-10.64,4.058-14.162,5.504c-0.564-0.215-1.283-0.437-1.857-0.437c-1.111,0-2.778,0.833-2.778,0.833
			s0.278-0.556,0.973-1.528c0.695-0.972,1.528-2.917,1.528-2.917s-1.806,0.556-2.778,2.223c-0.972,1.667-0.417,2.223-0.417,2.223
			s-1.528-1.667-2.917-1.667c-1.389,0-1.806,1.111-1.806,1.111h1.25c0,0,0.418-0.187,1.668,0.23c1.25,0.417,1.536,0.663,1.536,0.663
			s-1.815-0.06-3.204,0.079c-1.389,0.139-2.537,1.502-2.537,1.502s2.12-0.669,3.37-0.669c1.25,0,2.161-0.285,2.161-0.285
			l-1.159,1.109c-0.129,0.123-0.232,0.268-0.329,0.415c-2.609,0.919-4.848,1.472-7.61,1.723c-9.239,0.84-23.516,4.199-23.516,4.199
			h309.913l-1.249-0.937L400.568,220.904z M127.931,217.156c-0.421,0.171-0.827,0.336-1.221,0.493
			c-0.5-0.253-0.818-0.373-0.818-0.373S126.808,217.238,127.931,217.156z M125.473,217.835c0,0,0.075,0.088,0.198,0.225
			c-0.122,0.048-0.242,0.094-0.362,0.14C125.409,217.983,125.473,217.835,125.473,217.835z M141.6,218.943
			c-0.903,0.361-1.653,0.336-1.653,0.336l1.192,0.79c0.324,0.215,0.61,0.538,0.825,0.934l1.213,2.228c0,0-1.259-0.766-1.927-1.451
			c-0.668-0.685-1.5-1.864-1.5-1.864s-0.428,1.842-1.01,2.868s-1.351,1.81-1.351,1.81s0.025-2.073,0.662-3.28
			c0.637-1.207,1.217-1.844,1.217-1.844s-1.115,0.375-2.264,0.675c-1.149,0.301-2.23,0.099-2.23,0.099s0.938-1.327,1.741-1.649
			c0.803-0.321,2.274,0.042,2.274,0.042s-0.378-0.483-1.191-1.269s-2.036-2.518-2.036-2.518s1.483,0.042,2.718,1.452
			c1.235,1.41,1.011,2.134,1.011,2.134s0.572-2.133,1.575-2.534c1.004-0.402,1.66,0.605,1.66,0.605l-0.904,0.361
			c0,0-0.362-0.069-1.132,0.716c-0.77,0.784-0.898,1.117-0.898,1.117s1.293-0.585,2.341-0.846c1.048-0.261,2.313,0.79,2.313,0.79
			S142.503,218.582,141.6,218.943z M157.992,205.817c0,0,0.239-0.01,0.614-0.029c-0.127,0.041-0.254,0.083-0.38,0.124
			C158.076,205.848,157.992,205.817,157.992,205.817z M163.796,218.08c-0.903,0.361-1.653,0.336-1.653,0.336l1.192,0.79
			c0.324,0.215,0.61,0.538,0.825,0.934l1.213,2.228c0,0-1.259-0.766-1.927-1.451c-0.668-0.685-1.5-1.864-1.5-1.864
			s-0.428,1.842-1.01,2.868c-0.581,1.026-1.351,1.81-1.351,1.81s0.025-2.073,0.662-3.28c0.637-1.207,1.217-1.844,1.217-1.844
			s-1.115,0.375-2.264,0.676c-1.149,0.301-2.23,0.098-2.23,0.098s0.938-1.327,1.741-1.648c0.803-0.321,2.274,0.042,2.274,0.042
			s-0.378-0.483-1.191-1.269c-0.813-0.786-2.037-2.518-2.037-2.518s1.483,0.042,2.718,1.452c1.236,1.41,1.012,2.134,1.012,2.134
			s0.572-2.133,1.576-2.534c1.004-0.401,1.66,0.605,1.66,0.605l-0.904,0.361c0,0-0.362-0.069-1.132,0.716
			c-0.77,0.784-0.898,1.117-0.898,1.117s1.293-0.585,2.341-0.846c1.048-0.26,2.313,0.79,2.313,0.79S164.7,217.719,163.796,218.08z
			 M383.314,200.061c0,0,0.007,0.026,0.011,0.039c-0.01-0.004-0.02-0.006-0.03-0.009
			C383.299,200.083,383.314,200.061,383.314,200.061z M362.719,199.874c0,0,0.414,0.483,1.027,1.121
			c-0.539,0.062-1.071,0.103-1.599,0.126C362.489,200.408,362.719,199.874,362.719,199.874z M358.034,199.513
			c2.21,0,3.821-0.503,3.821-0.503l-2.048,1.961c-0.022,0.021-0.04,0.046-0.061,0.067c-1.362-0.158-2.715-0.545-4.091-1.247
			C356.491,199.63,357.339,199.513,358.034,199.513z M342.65,213.861c1.632,1.088,2.72,3.445,2.72,3.445s-1.632-0.544-3.082-1.45
			c-1.45-0.907-3.068-2.816-3.068-2.816s-0.739,1.728-1.464,2.816c-0.725,1.088-2.357,2.538-2.357,2.538l0.82-3.1
			c0.146-0.551,0.44-1.05,0.852-1.444l1.512-1.448c0,0-1.189,0.371-2.821,0.371c-1.632,0-4.399,0.873-4.399,0.873
			s1.498-1.779,3.311-1.96c1.813-0.181,4.182-0.104,4.182-0.104s-0.372-0.322-2.004-0.866c-1.632-0.544-2.178-0.3-2.178-0.3h-1.632
			c0,0,0.544-1.45,2.357-1.45c1.813,0,3.808,2.176,3.808,2.176s-0.725-0.725,0.544-2.901c1.269-2.176,3.626-2.901,3.626-2.901
			s-1.088,2.538-1.994,3.807c-0.907,1.269-1.269,1.994-1.269,1.994s2.176-1.088,3.626-1.088c1.451,0,3.626,1.088,3.626,1.088
			s-1.632,0.725-3.626,0.907c-1.994,0.181-3.972,0.263-3.972,0.263S341.018,212.773,342.65,213.861z M356.77,218.076
			c0.301,0.402,0.508,0.918,0.599,1.492l0.511,3.234c0,0-1.199-1.476-1.715-2.598c-0.516-1.122-1.018-2.916-1.018-2.916
			s-1.318,2.055-2.469,3.051c-1.151,0.996-2.427,1.616-2.427,1.616s0.928-2.51,2.225-3.702c1.297-1.192,2.278-1.715,2.278-1.715
			s-1.518-0.027-3.045-0.158c-1.527-0.131-2.754-0.845-2.754-0.845s1.715-1.208,2.831-1.251s2.747,1.036,2.747,1.036
			s-0.251-0.751-0.899-2.058c-0.648-1.307-1.387-3.943-1.387-3.943s1.785,0.692,2.677,2.941c0.892,2.249,0.306,3.033,0.306,3.033
			s1.618-2.346,3.012-2.4s1.757,1.454,1.757,1.454l-1.255,0.048c0,0-0.411-0.24-1.687,0.38c-1.276,0.62-1.575,0.969-1.575,0.969
			s1.825-0.152,3.213-0.015c1.387,0.137,2.471,1.962,2.471,1.962s-2.094-0.835-3.349-0.786c-1.255,0.048-2.155-0.307-2.155-0.307
			L356.77,218.076z M379.513,217.831c2.21,1.473,3.683,4.666,3.683,4.666s-2.21-0.737-4.174-1.964
			c-1.965-1.228-4.156-3.814-4.156-3.814s-1.001,2.34-1.983,3.814c-0.982,1.473-3.192,3.438-3.192,3.438l1.111-4.199
			c0.197-0.745,0.596-1.422,1.153-1.955l2.048-1.961c0,0-1.611,0.503-3.821,0.503c-2.21,0-5.957,1.182-5.957,1.182
			s2.028-2.41,4.484-2.655c2.456-0.245,5.664-0.14,5.664-0.14s-0.505-0.436-2.715-1.172c-2.21-0.737-2.95-0.406-2.95-0.406h-2.21
			c0,0,0.737-1.965,3.192-1.965c2.456,0,5.157,2.947,5.157,2.947s-0.982-0.982,0.737-3.929c1.719-2.947,4.911-3.929,4.911-3.929
			s-1.473,3.438-2.701,5.157c-1.228,1.719-1.719,2.701-1.719,2.701s2.947-1.473,4.911-1.473c1.964,0,4.911,1.473,4.911,1.473
			s-2.21,0.982-4.911,1.228c-2.701,0.245-5.38,0.356-5.38,0.356S377.303,216.358,379.513,217.831z M397.955,217.874
			c0,0-0.166,0.09-0.443,0.271c-0.035-0.093-0.075-0.191-0.112-0.286C397.743,217.87,397.955,217.874,397.955,217.874z
			 M397.923,219.248c0.257-0.367,0.423-0.624,0.423-0.624s0.502,1.794,1.018,2.916c0.312,0.678,0.87,1.481,1.266,2.014l-1.706-1.279
			C398.924,222.274,398.588,221.079,397.923,219.248z"/>
		<path style="opacity:0.3;fill:#FFFFFF;" d="M400.568,220.904c-0.091-0.574-0.298-1.091-0.599-1.492l-1.107-1.477
			c0,0,0.9,0.355,2.155,0.307c1.255-0.048,3.349,0.786,3.349,0.786s-1.083-1.825-2.47-1.962c-1.388-0.137-3.213,0.016-3.213,0.016
			s0.299-0.349,1.575-0.969c1.276-0.62,1.687-0.38,1.687-0.38l1.255-0.048c0,0-0.362-1.508-1.757-1.454
			c-1.395,0.054-3.012,2.4-3.012,2.4s0.586-0.784-0.306-3.033c-0.892-2.249-2.677-2.941-2.677-2.941s0.739,2.635,1.387,3.942
			c0.648,1.307,0.899,2.059,0.899,2.059s-0.464-0.303-1.062-0.582c-2.246-5.273-6.177-12.422-11.79-15.299l-1.052-1.403
			c0,0,0.9,0.355,2.155,0.307c1.255-0.048,3.349,0.786,3.349,0.786s-1.083-1.825-2.471-1.962c-1.388-0.137-3.213,0.015-3.213,0.015
			s0.299-0.349,1.575-0.969c1.276-0.62,1.687-0.38,1.687-0.38l1.255-0.048c0,0-0.362-1.508-1.757-1.454
			c-1.394,0.054-3.012,2.4-3.012,2.4s0.586-0.784-0.306-3.033c-0.892-2.249-2.677-2.941-2.677-2.941s0.739,2.635,1.387,3.943
			c0.648,1.307,0.899,2.058,0.899,2.058s-1.631-1.079-2.747-1.036c-1.116,0.043-2.831,1.251-2.831,1.251s1.227,0.714,2.754,0.845
			c1.527,0.131,3.045,0.158,3.045,0.158s-0.279,0.151-0.728,0.464c-0.299-0.069-0.6-0.134-0.907-0.178
			c-5.888-0.841-10.512,0.213-14.611,0.948c-1.862-1.155-3.217-1.659-3.217-1.659s2.679-0.11,5.38-0.356
			c2.701-0.246,4.911-1.228,4.911-1.228s-2.947-1.473-4.911-1.473c-1.965,0-4.911,1.473-4.911,1.473s0.491-0.982,1.719-2.701
			c1.228-1.719,2.701-5.157,2.701-5.157s-3.192,0.982-4.911,3.929c-1.719,2.947-0.737,3.929-0.737,3.929s-2.701-2.947-5.157-2.947
			s-3.192,1.964-3.192,1.964h2.21c0,0,0.74-0.33,2.95,0.407c2.21,0.737,2.715,1.172,2.715,1.172s-3.209-0.105-5.664,0.14
			c-0.87,0.087-1.681,0.45-2.373,0.877c-7.084-5.012-13.329-19.715-32.533-24.516c-20.157-5.039-50.982,24.258-69.709,28.556
			c-17.75,4.073-56.923-6.352-87.423,1.128c-0.751-0.285-1.704-0.577-2.465-0.577c-1.485,0-3.711,1.113-3.711,1.113
			s0.371-0.742,1.299-2.041c0.928-1.299,2.041-3.897,2.041-3.897s-2.412,0.742-3.711,2.969c-1.299,2.227-0.557,2.969-0.557,2.969
			s-2.041-2.227-3.897-2.227c-1.856,0-2.412,1.485-2.412,1.485h1.67c0,0,0.559-0.249,2.229,0.307
			c1.67,0.557,2.051,0.886,2.051,0.886s-2.425-0.08-4.28,0.106c-1.856,0.186-3.388,2.006-3.388,2.006s2.832-0.893,4.502-0.893
			c1.67,0,2.887-0.38,2.887-0.38l-0.762,0.73c-4.17,1.386-7.797,2.653-10.972,3.807c0.433,0.044,2.021,0.306,3.385,1.863
			c1.595,1.82,1.305,2.755,1.305,2.755s0.738-2.753,2.033-3.271c1.296-0.518,2.143,0.781,2.143,0.781l-1.166,0.466
			c0,0-0.467-0.088-1.461,0.924c-0.994,1.012-1.159,1.441-1.159,1.441s1.668-0.755,3.021-1.092c1.353-0.336,2.985,1.02,2.985,1.02
			s-2.253-0.084-3.419,0.382c-1.166,0.466-2.133,0.434-2.133,0.434l1.538,1.02c0.418,0.277,0.787,0.695,1.065,1.205l1.566,2.875
			c0,0-1.624-0.988-2.487-1.872c-0.862-0.884-1.936-2.406-1.936-2.406s-0.553,2.378-1.303,3.702
			c-0.75,1.324-1.744,2.336-1.744,2.336s0.033-2.675,0.855-4.233c0.822-1.558,1.571-2.38,1.571-2.38s-1.439,0.484-2.922,0.872
			c-1.482,0.388-2.878,0.127-2.878,0.127s1.211-1.713,2.248-2.128c1.037-0.415,2.935,0.055,2.935,0.055s-0.488-0.624-1.537-1.638
			c-0.99-0.957-2.437-2.98-2.597-3.206c-6.167,2.242-10.64,4.058-14.162,5.504c-0.564-0.215-1.283-0.437-1.857-0.437
			c-1.111,0-2.778,0.833-2.778,0.833s0.278-0.556,0.973-1.528c0.695-0.972,1.528-2.917,1.528-2.917s-1.806,0.556-2.778,2.223
			c-0.972,1.667-0.417,2.223-0.417,2.223s-1.528-1.667-2.917-1.667c-1.389,0-1.806,1.111-1.806,1.111h1.25
			c0,0,0.418-0.187,1.668,0.23c1.25,0.417,1.536,0.663,1.536,0.663s-1.815-0.06-3.204,0.079c-1.389,0.139-2.537,1.502-2.537,1.502
			s2.12-0.669,3.37-0.669c1.25,0,2.161-0.285,2.161-0.285l-1.159,1.109c-0.129,0.123-0.232,0.268-0.329,0.415
			c-2.609,0.919-4.848,1.472-7.61,1.723c-9.239,0.84-23.516,4.199-23.516,4.199h309.913l-1.249-0.937L400.568,220.904z
			 M127.931,217.156c-0.421,0.171-0.827,0.336-1.221,0.493c-0.5-0.253-0.818-0.373-0.818-0.373S126.808,217.238,127.931,217.156z
			 M125.473,217.835c0,0,0.075,0.088,0.198,0.225c-0.122,0.048-0.242,0.094-0.362,0.14
			C125.409,217.983,125.473,217.835,125.473,217.835z M141.6,218.943c-0.903,0.361-1.653,0.336-1.653,0.336l1.192,0.79
			c0.324,0.215,0.61,0.538,0.825,0.934l1.213,2.228c0,0-1.259-0.766-1.927-1.451c-0.668-0.685-1.5-1.864-1.5-1.864
			s-0.428,1.842-1.01,2.868s-1.351,1.81-1.351,1.81s0.025-2.073,0.662-3.28c0.637-1.207,1.217-1.844,1.217-1.844
			s-1.115,0.375-2.264,0.675c-1.149,0.301-2.23,0.099-2.23,0.099s0.938-1.327,1.741-1.649c0.803-0.321,2.274,0.042,2.274,0.042
			s-0.378-0.483-1.191-1.269s-2.036-2.518-2.036-2.518s1.483,0.042,2.718,1.452c1.235,1.41,1.011,2.134,1.011,2.134
			s0.572-2.133,1.575-2.534c1.004-0.402,1.66,0.605,1.66,0.605l-0.904,0.361c0,0-0.362-0.069-1.132,0.716
			c-0.77,0.784-0.898,1.117-0.898,1.117s1.293-0.585,2.341-0.846c1.048-0.261,2.313,0.79,2.313,0.79S142.503,218.582,141.6,218.943z
			 M157.992,205.817c0,0,0.239-0.01,0.614-0.029c-0.127,0.041-0.254,0.083-0.38,0.124
			C158.076,205.848,157.992,205.817,157.992,205.817z M163.796,218.08c-0.903,0.361-1.653,0.336-1.653,0.336l1.192,0.79
			c0.324,0.215,0.61,0.538,0.825,0.934l1.213,2.228c0,0-1.259-0.766-1.927-1.451c-0.668-0.685-1.5-1.864-1.5-1.864
			s-0.428,1.842-1.01,2.868c-0.581,1.026-1.351,1.81-1.351,1.81s0.025-2.073,0.662-3.28c0.637-1.207,1.217-1.844,1.217-1.844
			s-1.115,0.375-2.264,0.676c-1.149,0.301-2.23,0.098-2.23,0.098s0.938-1.327,1.741-1.648c0.803-0.321,2.274,0.042,2.274,0.042
			s-0.378-0.483-1.191-1.269c-0.813-0.786-2.037-2.518-2.037-2.518s1.483,0.042,2.718,1.452c1.236,1.41,1.012,2.134,1.012,2.134
			s0.572-2.133,1.576-2.534c1.004-0.401,1.66,0.605,1.66,0.605l-0.904,0.361c0,0-0.362-0.069-1.132,0.716
			c-0.77,0.784-0.898,1.117-0.898,1.117s1.293-0.585,2.341-0.846c1.048-0.26,2.313,0.79,2.313,0.79S164.7,217.719,163.796,218.08z
			 M383.314,200.061c0,0,0.007,0.026,0.011,0.039c-0.01-0.004-0.02-0.006-0.03-0.009
			C383.299,200.083,383.314,200.061,383.314,200.061z M362.719,199.874c0,0,0.414,0.483,1.027,1.121
			c-0.539,0.062-1.071,0.103-1.599,0.126C362.489,200.408,362.719,199.874,362.719,199.874z M358.034,199.513
			c2.21,0,3.821-0.503,3.821-0.503l-2.048,1.961c-0.022,0.021-0.04,0.046-0.061,0.067c-1.362-0.158-2.715-0.545-4.091-1.247
			C356.491,199.63,357.339,199.513,358.034,199.513z M342.65,213.861c1.632,1.088,2.72,3.445,2.72,3.445s-1.632-0.544-3.082-1.45
			c-1.45-0.907-3.068-2.816-3.068-2.816s-0.739,1.728-1.464,2.816c-0.725,1.088-2.357,2.538-2.357,2.538l0.82-3.1
			c0.146-0.551,0.44-1.05,0.852-1.444l1.512-1.448c0,0-1.189,0.371-2.821,0.371c-1.632,0-4.399,0.873-4.399,0.873
			s1.498-1.779,3.311-1.96c1.813-0.181,4.182-0.104,4.182-0.104s-0.372-0.322-2.004-0.866c-1.632-0.544-2.178-0.3-2.178-0.3h-1.632
			c0,0,0.544-1.45,2.357-1.45c1.813,0,3.808,2.176,3.808,2.176s-0.725-0.725,0.544-2.901c1.269-2.176,3.626-2.901,3.626-2.901
			s-1.088,2.538-1.994,3.807c-0.907,1.269-1.269,1.994-1.269,1.994s2.176-1.088,3.626-1.088c1.451,0,3.626,1.088,3.626,1.088
			s-1.632,0.725-3.626,0.907c-1.994,0.181-3.972,0.263-3.972,0.263S341.018,212.773,342.65,213.861z M356.77,218.076
			c0.301,0.402,0.508,0.918,0.599,1.492l0.511,3.234c0,0-1.199-1.476-1.715-2.598c-0.516-1.122-1.018-2.916-1.018-2.916
			s-1.318,2.055-2.469,3.051c-1.151,0.996-2.427,1.616-2.427,1.616s0.928-2.51,2.225-3.702c1.297-1.192,2.278-1.715,2.278-1.715
			s-1.518-0.027-3.045-0.158c-1.527-0.131-2.754-0.845-2.754-0.845s1.715-1.208,2.831-1.251s2.747,1.036,2.747,1.036
			s-0.251-0.751-0.899-2.058c-0.648-1.307-1.387-3.943-1.387-3.943s1.785,0.692,2.677,2.941c0.892,2.249,0.306,3.033,0.306,3.033
			s1.618-2.346,3.012-2.4s1.757,1.454,1.757,1.454l-1.255,0.048c0,0-0.411-0.24-1.687,0.38c-1.276,0.62-1.575,0.969-1.575,0.969
			s1.825-0.152,3.213-0.015c1.387,0.137,2.471,1.962,2.471,1.962s-2.094-0.835-3.349-0.786c-1.255,0.048-2.155-0.307-2.155-0.307
			L356.77,218.076z M379.513,217.831c2.21,1.473,3.683,4.666,3.683,4.666s-2.21-0.737-4.174-1.964
			c-1.965-1.228-4.156-3.814-4.156-3.814s-1.001,2.34-1.983,3.814c-0.982,1.473-3.192,3.438-3.192,3.438l1.111-4.199
			c0.197-0.745,0.596-1.422,1.153-1.955l2.048-1.961c0,0-1.611,0.503-3.821,0.503c-2.21,0-5.957,1.182-5.957,1.182
			s2.028-2.41,4.484-2.655c2.456-0.245,5.664-0.14,5.664-0.14s-0.505-0.436-2.715-1.172c-2.21-0.737-2.95-0.406-2.95-0.406h-2.21
			c0,0,0.737-1.965,3.192-1.965c2.456,0,5.157,2.947,5.157,2.947s-0.982-0.982,0.737-3.929c1.719-2.947,4.911-3.929,4.911-3.929
			s-1.473,3.438-2.701,5.157c-1.228,1.719-1.719,2.701-1.719,2.701s2.947-1.473,4.911-1.473c1.964,0,4.911,1.473,4.911,1.473
			s-2.21,0.982-4.911,1.228c-2.701,0.245-5.38,0.356-5.38,0.356S377.303,216.358,379.513,217.831z M397.955,217.874
			c0,0-0.166,0.09-0.443,0.271c-0.035-0.093-0.075-0.191-0.112-0.286C397.743,217.87,397.955,217.874,397.955,217.874z
			 M397.923,219.248c0.257-0.367,0.423-0.624,0.423-0.624s0.502,1.794,1.018,2.916c0.312,0.678,0.87,1.481,1.266,2.014l-1.706-1.279
			C398.924,222.274,398.588,221.079,397.923,219.248z"/>
	</g>
</g>
<g id="Clouds">
	<g>
		<g>
			<path style="fill:#C6FF00;" d="M395.43,157.249c-3.376-1.641-4.911-0.273-6.139-1.641c-1.228-1.368,3.376-4.924-5.831-8.48
				c0,0-0.614-7.659-13.198-7.933c-12.584-0.274-9.208,7.659-12.584,9.574c-3.376,1.915-4.297-1.094-7.673,0.821
				c-3.376,1.915-1.842,5.744-4.604,6.292c-2.762,0.547-6.445-2.462-9.822-0.547c-3.376,1.915-3.376,3.556-4.911,3.556
				c-1.535,0-4.604-1.094-6.445,0c-1.842,1.094-3.99,2.462-3.99,2.462h77.652C397.885,161.352,398.806,158.89,395.43,157.249z"/>
			<path style="fill:#C6FF00;" d="M244.801,171.964c-4.747-2.308-6.906-0.384-8.632-2.308c-1.726-1.923,4.747-6.923-8.2-11.924
				c0,0-0.863-10.77-18.558-11.155c-17.695-0.385-12.947,10.77-17.695,13.462c-4.747,2.693-6.042-1.538-10.79,1.154
				c-4.747,2.692-2.589,8.077-6.473,8.847c-3.884,0.769-9.063-3.462-13.811-0.769c-3.452,1.958-4.394,3.707-5.481,4.519
				c-0.64-0.024-1.13-0.07-1.563-0.553c-0.961-1.07,2.642-3.853-4.564-6.636c0,0-0.48-5.994-10.329-6.208
				c-9.848-0.214-7.206,5.994-9.848,7.493c-2.642,1.499-3.363-0.856-6.005,0.642c-2.642,1.499-1.441,4.496-3.603,4.924
				c-2.162,0.428-5.044-1.927-7.686-0.428c-2.642,1.499-2.642,2.783-3.843,2.783c-1.201,0-3.603-0.856-5.044,0
				c-1.441,0.856-3.123,1.927-3.123,1.927h39.51h21.261h87.928C248.254,177.734,249.549,174.272,244.801,171.964z"/>
			<path style="fill:#C6FF00;" d="M319.7,107.468c-6.727-3.27-9.785-0.545-12.231-3.27c-2.446-2.725,6.727-9.81-11.619-16.896
				c0,0-1.223-15.26-26.296-15.805c-25.072-0.545-18.346,15.261-25.072,19.076c-6.727,3.815-8.561-2.18-15.288,1.635
				c-6.727,3.815-3.669,11.445-9.173,12.535c-5.504,1.09-12.842-4.905-19.569-1.09c-6.727,3.815-6.727,7.085-9.785,7.085
				s-9.173-2.18-12.842,0c-3.669,2.18-7.95,4.905-7.95,4.905h154.716C324.592,115.644,326.427,110.738,319.7,107.468z"/>
		</g>
		<g style="opacity:0.6;">
			<path style="fill:#FFFFFF;" d="M395.43,157.249c-3.376-1.641-4.911-0.273-6.139-1.641c-1.228-1.368,3.376-4.924-5.831-8.48
				c0,0-0.614-7.659-13.198-7.933c-12.584-0.274-9.208,7.659-12.584,9.574c-3.376,1.915-4.297-1.094-7.673,0.821
				c-3.376,1.915-1.842,5.744-4.604,6.292c-2.762,0.547-6.445-2.462-9.822-0.547c-3.376,1.915-3.376,3.556-4.911,3.556
				c-1.535,0-4.604-1.094-6.445,0c-1.842,1.094-3.99,2.462-3.99,2.462h77.652C397.885,161.352,398.806,158.89,395.43,157.249z"/>
			<path style="fill:#FFFFFF;" d="M244.801,171.964c-4.747-2.308-6.906-0.384-8.632-2.308c-1.726-1.923,4.747-6.923-8.2-11.924
				c0,0-0.863-10.77-18.558-11.155c-17.695-0.385-12.947,10.77-17.695,13.462c-4.747,2.693-6.042-1.538-10.79,1.154
				c-4.747,2.692-2.589,8.077-6.473,8.847c-3.884,0.769-9.063-3.462-13.811-0.769c-3.452,1.958-4.394,3.707-5.481,4.519
				c-0.64-0.024-1.13-0.07-1.563-0.553c-0.961-1.07,2.642-3.853-4.564-6.636c0,0-0.48-5.994-10.329-6.208
				c-9.848-0.214-7.206,5.994-9.848,7.493c-2.642,1.499-3.363-0.856-6.005,0.642c-2.642,1.499-1.441,4.496-3.603,4.924
				c-2.162,0.428-5.044-1.927-7.686-0.428c-2.642,1.499-2.642,2.783-3.843,2.783c-1.201,0-3.603-0.856-5.044,0
				c-1.441,0.856-3.123,1.927-3.123,1.927h39.51h21.261h87.928C248.254,177.734,249.549,174.272,244.801,171.964z"/>
			<path style="fill:#FFFFFF;" d="M319.7,107.468c-6.727-3.27-9.785-0.545-12.231-3.27c-2.446-2.725,6.727-9.81-11.619-16.896
				c0,0-1.223-15.26-26.296-15.805c-25.072-0.545-18.346,15.261-25.072,19.076c-6.727,3.815-8.561-2.18-15.288,1.635
				c-6.727,3.815-3.669,11.445-9.173,12.535c-5.504,1.09-12.842-4.905-19.569-1.09c-6.727,3.815-6.727,7.085-9.785,7.085
				s-9.173-2.18-12.842,0c-3.669,2.18-7.95,4.905-7.95,4.905h154.716C324.592,115.644,326.427,110.738,319.7,107.468z"/>
		</g>
	</g>
</g>
<g id="Ship">
	<g>
		<g>
			
				<line style="fill:none;stroke:#263238;stroke-linecap:round;stroke-linejoin:round;stroke-miterlimit:10;" x1="412.853" y1="225.206" x2="422.728" y2="225.206"/>
			
				<line style="fill:none;stroke:#263238;stroke-linecap:round;stroke-linejoin:round;stroke-miterlimit:10;" x1="105.166" y1="225.206" x2="405.208" y2="225.206"/>
			
				<line style="fill:none;stroke:#263238;stroke-linecap:round;stroke-linejoin:round;stroke-miterlimit:10;" x1="84.781" y1="225.206" x2="98.795" y2="225.206"/>
			
				<line style="fill:none;stroke:#263238;stroke-linecap:round;stroke-linejoin:round;stroke-miterlimit:10;" x1="68.33" y1="225.206" x2="77.773" y2="225.206"/>
		</g>
		<g>
			<path style="fill:#FFFFFF;stroke:#263238;stroke-miterlimit:10;" d="M243.985,417.659c0,0-5.552-8.042-19.564-11.323
				c-14.012-3.282-25.222-2.735-25.222-11.485c0-8.751,6.072-36.644-5.605-42.113c-11.677-5.469-38.767-10.939-35.031-19.142
				s14.012-10.939,3.737-19.689c-10.276-8.751-28.492-12.579-28.959-20.783c-0.467-8.204,13.545-12.032,22.887-11.486
				c9.342,0.547,5.138-7.11,3.27-12.032c-1.868-4.922,20.551-4.375,23.354-4.375C185.653,265.228,239.728,393.979,243.985,417.659z"
				/>
			<path style="fill:#FFFFFF;stroke:#263238;stroke-miterlimit:10;" d="M245.895,418.753c0,0,5.552-8.042,19.564-11.324
				c14.012-3.281,25.222-2.735,25.222-11.485s-6.072-36.644,5.605-42.113c11.677-5.469,38.767-10.939,35.031-19.142
				c-3.737-8.204-14.012-10.939-3.737-19.689c10.276-8.751,28.492-12.579,28.959-20.783c0.467-8.204-13.545-12.033-22.887-11.486
				c-9.341,0.547-5.138-7.11-3.27-12.032c1.868-4.922-20.551-4.375-23.354-4.375C304.226,266.322,250.151,395.073,245.895,418.753z"
				/>
			<path style="opacity:0.5;fill:#C6FF00;" d="M245.895,418.753c0,0,5.552-8.042,19.564-11.324
				c14.012-3.281,25.222-2.735,25.222-11.485s-6.072-36.644,5.605-42.113c11.677-5.469,38.767-10.939,35.031-19.142
				c-3.737-8.204-14.012-10.939-3.737-19.689c10.276-8.751,28.492-12.579,28.959-20.783c0.467-8.204-13.545-12.033-22.887-11.486
				c-9.341,0.547-5.138-7.11-3.27-12.032c1.868-4.922-20.551-4.375-23.354-4.375C304.226,266.322,250.151,395.073,245.895,418.753z"
				/>
			<path style="fill:#FFFFFF;stroke:#263238;stroke-miterlimit:10;" d="M201.534,407.064c0,0-16.192,0.729-18.683-9.48
				c-2.491-10.209,15.569-16.772,2.491-25.523c-13.078-8.751-42.348-4.375-46.085-16.772c-3.737-12.397,9.964-18.231,9.964-18.231
				s-9.964,10.209,0.623,14.585c10.586,4.375,46.081,8.021,48.576,23.333C200.505,387.77,185.615,399.075,201.534,407.064z"/>
			<path style="fill:#FFFFFF;stroke:#263238;stroke-miterlimit:10;" d="M289.321,407.064c0,0,16.192,0.729,18.683-9.48
				c2.491-10.209-15.569-16.772-2.491-25.523c13.078-8.751,42.348-4.375,46.085-16.772c3.737-12.397-9.964-18.231-9.964-18.231
				s9.964,10.209-0.623,14.585c-10.586,4.375-46.08,8.021-48.575,23.333C290.351,387.77,305.24,399.075,289.321,407.064z"/>
			<path style="opacity:0.5;fill:#C6FF00;" d="M289.321,407.064c0,0,16.192,0.729,18.683-9.48
				c2.491-10.209-15.569-16.772-2.491-25.523c13.078-8.751,42.348-4.375,46.085-16.772c3.737-12.397-9.964-18.231-9.964-18.231
				s9.964,10.209-0.623,14.585c-10.586,4.375-46.08,8.021-48.575,23.333C290.351,387.77,305.24,399.075,289.321,407.064z"/>
			<g>
				<path style="fill:none;stroke:#263238;stroke-linecap:round;stroke-linejoin:round;stroke-miterlimit:10;" d="M177.354,373.274
					c1.255,0.583,2.21,1.234,2.768,1.978"/>
				<path style="fill:none;stroke:#263238;stroke-linecap:round;stroke-linejoin:round;stroke-miterlimit:10;" d="M138.341,362.001
					c1.502,1.315,3.568,2.614,6.405,3.678c7.127,2.673,20.186,3.862,28.444,6.138"/>
				<path style="fill:none;stroke:#263238;stroke-linecap:round;stroke-linejoin:round;stroke-miterlimit:10;" d="M134.342,355.275
					c0,0,0.104,1.665,1.457,3.798"/>
				<path style="fill:none;stroke:#263238;stroke-linecap:round;stroke-linejoin:round;stroke-miterlimit:10;" d="M137.757,306.668
					c6.743,2.848,18.365,7.395,19.997,11.097c1.997,4.531-4.493,5.055-4.493,5.055"/>
				<path style="fill:none;stroke:#263238;stroke-linecap:round;stroke-linejoin:round;stroke-miterlimit:10;" d="M131.124,302.319
					c0.61,0.712,1.46,1.503,2.641,2.291"/>
				<path style="fill:none;stroke:#263238;stroke-linecap:round;stroke-linejoin:round;stroke-miterlimit:10;" d="M129.603,299.594
					c0,0,0.049,0.295,0.264,0.783"/>
			</g>
			<g>
				<path style="fill:none;stroke:#263238;stroke-linecap:round;stroke-linejoin:round;stroke-miterlimit:10;" d="M316.484,373.274
					c-1.255,0.583-2.21,1.234-2.768,1.978"/>
				<path style="fill:none;stroke:#263238;stroke-linecap:round;stroke-linejoin:round;stroke-miterlimit:10;" d="M355.497,362.001
					c-1.502,1.315-3.568,2.614-6.405,3.678c-7.127,2.673-20.186,3.862-28.444,6.138"/>
				<path style="fill:none;stroke:#263238;stroke-linecap:round;stroke-linejoin:round;stroke-miterlimit:10;" d="M359.496,355.275
					c0,0-0.104,1.665-1.456,3.798"/>
				<path style="fill:none;stroke:#263238;stroke-linecap:round;stroke-linejoin:round;stroke-miterlimit:10;" d="M356.081,306.668
					c-6.743,2.848-18.365,7.395-19.997,11.097c-1.997,4.531,4.493,5.055,4.493,5.055"/>
				<path style="fill:none;stroke:#263238;stroke-linecap:round;stroke-linejoin:round;stroke-miterlimit:10;" d="M362.715,302.319
					c-0.611,0.712-1.461,1.503-2.642,2.291"/>
				<path style="fill:none;stroke:#263238;stroke-linecap:round;stroke-linejoin:round;stroke-miterlimit:10;" d="M364.235,299.594
					c0,0-0.049,0.295-0.264,0.783"/>
			</g>
		</g>
		<path style="fill:#FFFFFF;stroke:#263238;stroke-linecap:round;stroke-linejoin:round;stroke-miterlimit:10;" d="M313.89,223.662
			h-67.819h-1.094h-1.094h-67.819l-6.016,5.743v42.348c0,1.662,0.378,3.294,1.111,4.786c3.988,8.114,20.041,45.246,29.79,60.885
			c17.957,28.805,41.613,77.219,42.872,80.236c0.231,0.555,0.671,0.885,1.156,1.013c0.485-0.128,0.925-0.458,1.156-1.013
			c1.259-3.017,24.914-51.432,42.872-80.236c9.749-15.639,25.802-52.77,29.79-60.885c0.733-1.492,1.111-3.124,1.111-4.786v-42.348
			L313.89,223.662z"/>
		<g>
			<path style="fill:#263238;stroke:#263238;stroke-linecap:round;stroke-linejoin:round;stroke-miterlimit:10;" d="M313.89,223.662
				h-67.819h-1.094h-1.094h-67.819l-6.016,5.743v47.856c0,1.662,0.378,3.294,1.111,4.785c3.988,8.114,20.041,39.738,29.79,55.376
				c17.957,28.805,41.613,77.219,42.872,80.236c0.231,0.555,0.671,0.885,1.156,1.013c0.485-0.128,0.925-0.458,1.156-1.013
				c1.259-3.017,24.914-51.432,42.872-80.236c9.749-15.639,25.802-47.262,29.79-55.376c0.733-1.492,1.111-3.124,1.111-4.785v-47.856
				L313.89,223.662z"/>
			<g>
				
					<line style="fill:none;stroke:#FFFFFF;stroke-linecap:round;stroke-linejoin:round;stroke-miterlimit:10;" x1="244.795" y1="294.397" x2="244.795" y2="285.282"/>
				
					<line style="fill:none;stroke:#FFFFFF;stroke-linecap:round;stroke-linejoin:round;stroke-miterlimit:10;" x1="244.795" y1="417.638" x2="244.795" y2="310.076"/>
			</g>
		</g>
		<g>
			<path style="fill:#C6FF00;stroke:#263238;stroke-linecap:round;stroke-linejoin:round;stroke-miterlimit:10;" d="
				M234.449,329.765c-6.63-25.821-24.078-40.049-32.283-45.498c-12.404-0.596-22.923-2.052-31.569-3.638
				c0.158,0.482,0.338,0.958,0.563,1.417c3.988,8.114,20.041,39.738,29.79,55.376c17.957,28.805,41.613,77.219,42.872,80.236
				c0.231,0.555,0.671,0.885,1.156,1.013c-0.174-0.046-0.338-0.128-0.493-0.227C243.816,401.509,241.46,357.073,234.449,329.765z
				 M210.117,340.399c-1.962,1.131-6.732-3.468-10.654-10.272c-3.922-6.804-5.511-13.237-3.549-14.368
				c1.962-1.131,6.732,3.468,10.654,10.272C210.49,332.835,212.079,339.268,210.117,340.399z"/>
			<path style="fill:#C6FF00;stroke:#263238;stroke-linecap:round;stroke-linejoin:round;stroke-miterlimit:10;" d="
				M288.578,283.958C288.579,283.958,288.579,283.958,288.578,283.958c-8.065,5.202-26.257,19.471-33.088,45.807
				c-7.095,27.352-9.471,71.887-10.141,88.759c-0.119,0.063-0.243,0.113-0.372,0.147c0.485-0.128,0.925-0.458,1.156-1.013
				c1.259-3.017,24.914-51.432,42.872-80.236c9.749-15.639,25.802-47.262,29.79-55.376c0.398-0.81,0.681-1.663,0.866-2.537
				C310.982,281.235,300.759,283.063,288.578,283.958z M291.524,330.127c-3.922,6.804-8.692,11.403-10.654,10.272
				c-1.962-1.131-0.373-7.564,3.549-14.368c3.922-6.804,8.692-11.403,10.654-10.272C297.035,316.89,295.446,323.323,291.524,330.127
				z"/>
		</g>
		<path style="fill:#FFFFFF;stroke:#263238;stroke-linecap:round;stroke-linejoin:round;stroke-miterlimit:10;" d="M245.798,223.662
			h-1.914h-67.819l-6.016,5.743v12.35c17.309,10.062,44.363,16.545,74.792,16.545c30.429,0,57.483-6.483,74.792-16.545v-12.35
			l-6.016-5.743H245.798z"/>
		<g>
			<path style="fill:#FFFFFF;stroke:#263238;stroke-miterlimit:10;" d="M244.05,130.527c0,0-3.871,0.277-7.189-2.212v-8.019
				c0-3.741,3.033-6.774,6.774-6.774l0,0c3.741,0,6.774,3.033,6.774,6.774v7.742C250.41,128.038,250.41,129.974,244.05,130.527z"/>
			<polygon style="fill:#263238;" points="232.398,159.581 237.867,163.409 251.267,163.409 257.557,159.033 254.002,159.033 
				249.9,162.042 249.9,159.307 238.141,159.307 238.141,161.768 234.859,159.307 			"/>
			<path style="fill:#FFFFFF;stroke:#263238;stroke-linecap:round;stroke-linejoin:round;stroke-miterlimit:10;" d="
				M227.095,160.061c0,0-3.871,0.277-7.189-2.212v-8.019c0-3.741,3.033-6.774,6.774-6.774l0,0c3.741,0,6.774,3.033,6.774,6.774
				v7.742C233.455,157.572,233.455,159.508,227.095,160.061z"/>
			<path style="fill:#FFFFFF;stroke:#263238;stroke-linecap:round;stroke-linejoin:round;stroke-miterlimit:10;" d="
				M261.552,160.061c0,0-3.871,0.277-7.189-2.212v-8.019c0-3.741,3.033-6.774,6.774-6.774l0,0c3.741,0,6.774,3.033,6.774,6.774
				v7.742C267.911,157.572,267.911,159.508,261.552,160.061z"/>
			<polygon style="fill:#263238;" points="246.682,152.27 246.682,147.743 245.55,147.743 245.55,135.227 247.092,135.227 
				247.092,129.974 245.55,129.974 241.997,129.974 240.456,129.974 240.456,135.227 241.997,135.227 241.997,147.743 
				240.866,147.743 240.866,152.27 238.772,152.27 238.772,157.523 248.775,157.523 248.775,152.27 			"/>
			
				<rect x="224.194" y="157.393" style="fill:#FFFFFF;stroke:#263238;stroke-linecap:round;stroke-linejoin:round;stroke-miterlimit:10;" width="38.832" height="2.461"/>
		</g>
		<path style="fill:#C6FF00;stroke:#263238;stroke-linecap:round;stroke-linejoin:round;stroke-miterlimit:10;" d="M245.16,237.517
			c28.653,0,54.66-3.335,73.798-8.757l-5.341-5.099h-67.819h-1.914h-67.819l-5.194,4.958
			C190.055,234.124,216.26,237.517,245.16,237.517z"/>
		<path style="fill:#FFFFFF;stroke:#263238;stroke-linecap:round;stroke-linejoin:round;stroke-miterlimit:10;" d="M318.166,209.722
			c-0.387-2.674-2.648-4.655-5.316-4.655h-29.941h-38.614h-38.615h-29.941c-2.668,0-4.93,1.982-5.316,4.655
			c-0.632,4.37-1.467,10.533-1.467,12.573c0,3.282,0.81,4.649,0.81,4.649h74.529h74.529c0,0,0.81-1.367,0.81-4.649
			C319.633,220.254,318.798,214.092,318.166,209.722z"/>
		<g>
			
				<rect x="207.24" y="163.227" style="fill:#FFFFFF;stroke:#263238;stroke-linecap:round;stroke-linejoin:round;stroke-miterlimit:10;" width="73.014" height="2.735"/>
			<polygon style="fill:#FFFFFF;stroke:#263238;stroke-linecap:round;stroke-linejoin:round;stroke-miterlimit:10;" points="
				207.24,165.961 206.966,170.61 202.591,176.079 206.693,176.079 284.903,176.079 279.981,170.063 280.254,165.961 			"/>
			<polygon style="fill:#C6FF00;stroke:#263238;stroke-linecap:round;stroke-linejoin:round;stroke-miterlimit:10;" points="
				210.524,165.961 210.275,170.61 206.293,176.079 210.026,176.079 281.201,176.079 276.721,170.063 276.97,165.961 			"/>
		</g>
		<path style="fill:#FFFFFF;stroke:#263238;stroke-linecap:round;stroke-linejoin:round;stroke-miterlimit:10;" d="M293.654,182.642
			H194.66v-4.157c0-1.933,1.567-3.5,3.5-3.5h91.993c1.933,0,3.5,1.567,3.5,3.5V182.642z"/>
		<path style="fill:#FFFFFF;stroke:#263238;stroke-linecap:round;stroke-linejoin:round;stroke-miterlimit:10;" d="M303.772,190.026
			H183.448v-4.595c0-2.9,2.35-5.25,5.25-5.25h109.824c2.899,0,5.25,2.35,5.25,5.25V190.026z"/>
		<path style="fill:#C6FF00;stroke:#263238;stroke-linecap:round;stroke-linejoin:round;stroke-miterlimit:10;" d="M242.79,205.066
			h-34.456l-24.885-15.041c0,0,3.829-2.735,10.392-2.735s105.01,0,105.01,0s4.375-0.547,4.922,2.735l-20.236,15.314L242.79,205.066z
			"/>
		<g>
			
				<rect x="197.942" y="188.659" style="fill:#263238;stroke:#263238;stroke-linecap:round;stroke-linejoin:round;stroke-miterlimit:10;" width="92.157" height="18.596"/>
			<g>
				<g>
					<rect x="205.052" y="188.659" style="fill:#C6FF00;" width="2.461" height="18.596"/>
					<rect x="280.528" y="188.659" style="fill:#C6FF00;" width="2.461" height="18.596"/>
				</g>
				<g>
					<rect x="265.214" y="188.659" style="fill:#C6FF00;" width="3.828" height="18.596"/>
					<rect x="218.999" y="188.659" style="fill:#C6FF00;" width="3.828" height="18.596"/>
				</g>
				<g>
					<rect x="233.219" y="188.659" style="fill:#C6FF00;" width="4.375" height="18.596"/>
					<rect x="250.447" y="188.659" style="fill:#C6FF00;" width="4.375" height="18.596"/>
				</g>
			</g>
		</g>
		
			<rect x="197.122" y="206.16" style="fill:#C6FF00;stroke:#263238;stroke-linecap:round;stroke-linejoin:round;stroke-miterlimit:10;" width="93.251" height="10.392"/>
		
			<rect x="222.645" y="206.16" style="fill:#C6FF00;stroke:#263238;stroke-linecap:round;stroke-linejoin:round;stroke-miterlimit:10;" width="42.204" height="10.392"/>
		<path style="fill:#FFFFFF;stroke:#263238;stroke-linecap:round;stroke-linejoin:round;stroke-miterlimit:10;" d="M245.16,237.517
			c21.778,0,42.019-1.93,58.886-5.236v-6.432l-13.673-9.298h-93.251l-11.212,8.751v6.907
			C202.848,235.559,223.224,237.517,245.16,237.517z"/>
		<g>
			<g>
				<path style="fill:#FFFFFF;stroke:#263238;stroke-linecap:round;stroke-linejoin:round;stroke-miterlimit:10;" d="
					M200.677,207.527v9.024l-4.102,9.024h-16.408c0,0,1.914-5.743,8.751-8.751c6.837-3.008,9.845-5.196,9.845-5.196v-4.375
					L200.677,207.527z"/>
				<path style="fill:none;stroke:#263238;stroke-linecap:round;stroke-linejoin:round;stroke-miterlimit:10;" d="M180.167,225.576
					c0,0-0.82-12.853-0.273-18.322c0.547-5.469,3.282-4.922,3.282-4.922l15.587,4.922"/>
				
					<line style="fill:none;stroke:#263238;stroke-linecap:round;stroke-linejoin:round;stroke-miterlimit:10;" x1="185.089" y1="203.152" x2="185.089" y2="219.013"/>
				
					<line style="fill:none;stroke:#263238;stroke-linecap:round;stroke-linejoin:round;stroke-miterlimit:10;" x1="188.918" y1="204.246" x2="188.918" y2="216.825"/>
				
					<line style="fill:none;stroke:#263238;stroke-linecap:round;stroke-linejoin:round;stroke-miterlimit:10;" x1="191.926" y1="205.066" x2="191.926" y2="214.911"/>
				
					<line style="fill:none;stroke:#263238;stroke-linecap:round;stroke-linejoin:round;stroke-miterlimit:10;" x1="194.66" y1="206.16" x2="194.66" y2="213.965"/>
			</g>
			<g>
				<path style="fill:#FFFFFF;stroke:#263238;stroke-linecap:round;stroke-linejoin:round;stroke-miterlimit:10;" d="
					M287.091,207.527v9.024l4.102,9.024H307.6c0,0-1.914-5.743-8.751-8.751c-6.837-3.008-9.845-5.196-9.845-5.196v-4.375
					L287.091,207.527z"/>
				<path style="fill:none;stroke:#263238;stroke-linecap:round;stroke-linejoin:round;stroke-miterlimit:10;" d="M289.005,207.254
					l15.587-4.922c0,0,2.735-0.547,3.281,4.922c0.547,5.469-0.273,18.322-0.273,18.322"/>
				
					<line style="fill:none;stroke:#263238;stroke-linecap:round;stroke-linejoin:round;stroke-miterlimit:10;" x1="302.678" y1="203.152" x2="302.678" y2="219.013"/>
				
					<line style="fill:none;stroke:#263238;stroke-linecap:round;stroke-linejoin:round;stroke-miterlimit:10;" x1="298.85" y1="204.246" x2="298.85" y2="216.825"/>
				
					<line style="fill:none;stroke:#263238;stroke-linecap:round;stroke-linejoin:round;stroke-miterlimit:10;" x1="295.842" y1="205.066" x2="295.842" y2="214.911"/>
				
					<line style="fill:none;stroke:#263238;stroke-linecap:round;stroke-linejoin:round;stroke-miterlimit:10;" x1="293.107" y1="206.16" x2="293.107" y2="213.965"/>
			</g>
		</g>
		<path style="fill:#C6FF00;stroke:#263238;stroke-linecap:round;stroke-linejoin:round;stroke-miterlimit:10;" d="M196.575,234.059
			c14.567,2.207,31.076,3.458,48.585,3.458c16.385,0,31.898-1.093,45.759-3.042v-8.899h-94.345V234.059z"/>
		<g>
			<path style="fill:none;stroke:#263238;stroke-linecap:round;stroke-linejoin:round;stroke-miterlimit:10;" d="M292.034,175.333
				v-4.002c0,0,0.033-1.466-3.283-1.466c-3.317,0-85.755,0-89.071,0s-3.283,1.466-3.283,1.466v4.002"/>
			
				<line style="fill:none;stroke:#263238;stroke-linecap:round;stroke-linejoin:round;stroke-miterlimit:10;" x1="212.738" y1="169.865" x2="212.738" y2="174.633"/>
			
				<line style="fill:none;stroke:#263238;stroke-linecap:round;stroke-linejoin:round;stroke-miterlimit:10;" x1="233.466" y1="169.865" x2="233.466" y2="174.633"/>
			
				<line style="fill:none;stroke:#263238;stroke-linecap:round;stroke-linejoin:round;stroke-miterlimit:10;" x1="254.195" y1="169.865" x2="254.195" y2="174.633"/>
			
				<line style="fill:none;stroke:#263238;stroke-linecap:round;stroke-linejoin:round;stroke-miterlimit:10;" x1="274.923" y1="169.865" x2="274.923" y2="174.633"/>
		</g>
	</g>
</g>
</svg>
